<svg id="svg" version="1.1" xmlns="http://www.w3.org/2000/svg" xmlns:xlink="http://www.w3.org/1999/xlink" width="400" height="400" viewBox="0, 0, 400,400"><g id="svgg"><path id="path0" d="M0.000 200.000 L 0.000 400.000 200.000 400.000 L 400.000 400.000 400.000 200.000 L 400.000 0.000 200.000 0.000 L 0.000 0.000 0.000 200.000 M119.581 188.880 L 119.581 200.161 120.287 200.161 C 121.590 200.161,126.672 194.718,126.672 193.321 C 126.672 191.971,125.226 190.492,123.908 190.492 C 123.378 190.492,123.127 190.310,123.127 189.927 C 123.127 189.411,123.618 189.363,128.929 189.363 C 135.469 189.363,136.221 189.680,132.995 191.077 C 132.045 191.488,130.275 192.733,129.055 193.850 L 126.841 195.877 127.690 197.455 C 128.156 198.323,129.947 201.716,131.668 204.996 C 133.389 208.276,135.073 211.258,135.409 211.624 C 136.531 212.848,136.221 212.924,130.056 212.933 C 124.036 212.942,123.504 212.829,124.771 211.803 L 125.448 211.255 123.280 206.594 C 119.903 199.336,119.567 199.226,119.613 205.399 C 119.652 210.589,119.783 211.143,121.112 211.765 C 123.167 212.726,122.321 212.903,115.552 212.930 C 108.866 212.955,107.634 212.723,109.908 211.865 C 111.475 211.273,111.523 210.793,111.521 195.869 C 111.519 180.612,111.429 179.684,109.886 179.102 C 107.833 178.327,108.795 177.944,113.054 177.840 C 115.314 177.784,117.707 177.707,118.372 177.669 L 119.581 177.599 119.581 188.880 M205.963 193.994 C 205.963 211.943,205.979 212.087,207.920 212.087 C 208.262 212.087,208.541 212.282,208.541 212.519 C 208.541 212.867,207.249 212.950,201.934 212.944 C 195.555 212.937,193.565 212.599,196.123 211.957 C 197.579 211.592,197.607 211.279,197.589 195.456 C 197.571 179.464,197.574 179.495,195.918 178.918 C 194.153 178.303,195.284 177.948,199.361 177.840 C 201.485 177.784,203.840 177.706,204.593 177.668 L 205.963 177.599 205.963 193.994 M221.434 193.855 C 221.434 211.309,221.465 211.658,223.041 211.973 C 223.575 212.080,224.013 212.343,224.013 212.557 C 224.013 212.849,222.320 212.947,217.244 212.947 C 211.818 212.947,210.475 212.861,210.475 212.517 C 210.475 212.280,210.766 212.087,211.120 212.087 C 213.071 212.087,213.054 212.234,213.054 195.825 C 213.054 179.735,213.030 179.490,211.398 178.921 C 209.514 178.264,210.467 177.941,214.585 177.840 C 216.845 177.784,219.311 177.707,220.064 177.669 L 221.434 177.599 221.434 193.855 M331.276 178.373 C 335.730 180.642,334.567 187.085,329.812 186.486 C 326.015 186.007,324.852 181.371,328.029 179.377 C 329.336 178.556,329.355 178.243,328.098 178.243 C 327.431 178.243,326.797 178.552,326.164 179.186 L 325.222 180.128 325.222 184.826 L 325.222 189.525 327.639 189.525 C 329.036 189.525,330.056 189.661,330.056 189.847 C 330.056 190.207,329.922 190.235,327.639 190.342 C 326.753 190.384,325.846 190.434,325.624 190.455 C 325.105 190.502,325.037 209.528,325.553 210.493 C 325.947 211.228,327.497 212.087,328.429 212.087 C 328.792 212.087,329.089 212.286,329.089 212.530 C 329.089 212.893,327.764 212.966,321.676 212.936 C 315.948 212.908,314.263 212.807,314.263 212.493 C 314.263 212.270,314.553 212.087,314.907 212.087 C 316.779 212.087,316.841 211.715,316.841 200.536 L 316.841 190.275 315.633 190.303 C 314.762 190.323,314.424 190.195,314.424 189.848 C 314.424 189.492,314.723 189.391,315.560 189.464 L 316.697 189.562 317.064 186.476 C 317.797 180.306,320.722 177.680,326.924 177.624 C 329.309 177.603,329.996 177.721,331.276 178.373 M72.980 181.113 C 87.639 186.328,86.775 208.569,71.746 212.903 C 56.086 217.418,43.647 202.759,51.102 188.573 C 54.755 181.621,64.789 178.200,72.980 181.113 M279.313 180.652 C 280.187 180.913,281.698 181.653,282.670 182.295 C 284.640 183.596,285.298 183.511,285.579 181.920 C 285.948 179.826,286.865 180.600,286.865 183.004 C 286.865 190.198,286.010 194.748,285.450 190.530 C 284.481 183.222,278.794 179.469,273.443 182.605 C 268.923 185.254,267.124 197.636,269.996 206.327 C 273.150 215.869,283.848 214.055,285.309 203.731 C 286.038 198.571,286.865 202.438,286.865 211.010 C 286.865 213.208,286.111 213.968,285.717 212.168 C 285.379 210.627,285.287 210.475,284.694 210.475 C 284.375 210.475,283.573 210.843,282.912 211.292 C 277.218 215.161,267.341 213.931,262.434 208.742 C 251.024 196.674,263.491 175.925,279.313 180.652 M64.625 181.210 C 56.304 184.111,56.850 211.012,65.263 212.590 C 70.636 213.599,73.614 208.031,73.635 196.938 C 73.656 185.976,69.877 179.379,64.625 181.210 M102.396 189.395 C 108.319 191.017,108.579 199.187,102.708 199.193 C 98.194 199.197,96.677 193.163,100.708 191.241 C 102.290 190.486,102.142 190.169,100.210 190.169 C 95.181 190.169,92.871 203.076,97.156 207.230 C 99.200 209.210,103.024 208.961,105.286 206.699 C 107.619 204.366,107.145 207.107,104.671 210.250 C 100.607 215.415,90.900 214.352,87.996 208.424 C 82.407 197.017,90.617 186.169,102.396 189.395 M189.462 190.067 C 191.430 191.284,192.682 193.654,192.962 196.696 L 193.163 198.872 187.276 198.872 L 181.388 198.872 181.531 201.692 C 181.870 208.388,187.087 211.002,191.312 206.593 C 193.943 203.846,192.751 207.793,190.066 210.717 C 186.564 214.532,179.052 214.445,175.633 210.551 C 171.791 206.175,171.888 196.504,175.818 192.154 C 178.904 188.738,185.645 187.707,189.462 190.067 M243.738 192.990 C 243.645 196.125,243.527 196.938,243.164 196.938 C 242.913 196.938,242.707 196.653,242.707 196.305 C 242.707 191.880,237.691 188.140,235.155 190.676 C 233.449 192.382,234.578 194.473,239.338 198.423 C 245.357 203.419,246.497 207.096,243.169 210.779 C 240.677 213.538,234.769 214.428,231.144 212.591 C 229.187 211.599,228.178 211.617,227.724 212.651 C 226.912 214.501,226.591 213.427,226.591 208.864 C 226.591 205.093,226.670 204.351,227.069 204.351 C 227.331 204.351,227.634 204.750,227.742 205.238 C 228.817 210.092,230.708 212.406,233.602 212.408 C 238.003 212.412,237.177 208.493,231.667 203.223 C 226.221 198.016,225.287 194.745,228.322 191.511 C 230.604 189.078,235.959 188.046,239.484 189.359 C 242.008 190.300,242.226 190.299,242.844 189.356 C 243.707 188.038,243.866 188.683,243.738 192.990 M305.882 189.215 C 309.954 190.303,310.378 191.437,310.391 201.289 C 310.405 211.245,310.454 211.564,311.926 211.287 C 313.437 211.004,313.206 211.708,311.505 212.571 C 308.315 214.188,302.659 213.016,302.659 210.737 C 302.659 209.949,302.387 210.002,301.653 210.936 C 298.081 215.476,290.304 213.412,290.304 207.923 C 290.304 204.493,292.054 202.795,297.634 200.812 C 302.113 199.221,302.337 198.961,302.337 195.331 C 302.337 190.568,300.971 188.862,297.955 189.857 L 296.796 190.240 297.943 191.186 C 302.002 194.531,297.028 200.828,292.895 197.578 C 287.152 193.060,296.864 186.806,305.882 189.215 M345.627 189.252 C 348.336 189.931,350.421 192.958,350.862 196.852 L 351.089 198.857 345.166 198.945 L 339.243 199.033 339.311 201.450 C 339.505 208.256,345.543 211.271,349.331 206.455 C 350.729 204.678,351.057 205.572,349.868 207.919 C 345.863 215.822,334.302 215.337,331.444 207.146 C 330.603 204.736,330.621 198.113,331.476 195.657 C 333.305 190.402,339.331 187.674,345.627 189.252 M149.396 189.915 C 149.396 190.146,148.942 190.374,148.372 190.430 C 146.526 190.608,146.533 190.851,148.571 197.707 C 149.612 201.211,150.528 204.141,150.606 204.219 C 150.684 204.297,151.295 202.219,151.963 199.602 C 152.632 196.984,153.486 193.646,153.863 192.184 L 154.547 189.525 157.030 189.525 L 159.513 189.525 160.634 193.151 C 165.047 207.422,164.692 206.569,165.255 204.271 C 165.439 203.517,165.988 201.550,166.474 199.899 C 167.957 194.858,167.316 191.424,164.754 190.689 C 164.158 190.519,163.739 190.184,163.738 189.881 C 163.738 189.427,164.268 189.375,168.090 189.461 C 172.596 189.563,173.409 189.865,171.677 190.792 C 170.395 191.478,169.665 193.250,166.540 203.262 L 163.533 212.893 161.295 212.986 L 159.056 213.079 156.827 206.540 C 155.602 202.943,154.365 199.440,154.080 198.754 L 153.561 197.509 151.507 205.281 L 149.453 213.054 147.279 213.054 L 145.105 213.054 144.147 210.395 C 143.620 208.932,141.997 204.307,140.541 200.115 C 137.673 191.866,137.028 190.492,136.024 190.492 C 135.621 190.492,135.375 190.278,135.375 189.927 C 135.375 189.405,135.898 189.368,142.385 189.431 C 147.860 189.484,149.396 189.590,149.396 189.915 M182.977 190.425 C 182.352 191.116,181.544 194.214,181.405 196.454 L 181.305 198.066 183.824 198.119 C 186.819 198.181,186.747 198.282,186.328 194.598 C 185.841 190.311,184.543 188.695,182.977 190.425 M340.761 190.639 C 339.980 191.633,339.343 194.116,339.285 196.399 L 339.243 198.066 341.782 198.101 L 344.322 198.135 344.165 195.148 C 343.930 190.650,342.374 188.589,340.761 190.639 M300.725 201.190 C 298.703 203.483,298.493 203.938,298.480 206.065 C 298.463 209.000,299.540 210.267,301.399 209.496 L 302.337 209.108 302.337 204.312 C 302.337 201.675,302.301 199.523,302.256 199.531 C 302.212 199.539,301.523 200.286,300.725 201.190 M292.408 232.650 C 293.027 233.269,292.321 233.960,291.248 233.786 C 290.007 233.585,289.122 234.290,289.122 235.478 C 289.122 236.191,289.251 236.261,290.572 236.261 C 291.904 236.261,292.023 236.327,292.023 237.067 C 292.023 237.807,291.904 237.873,290.572 237.873 L 289.122 237.873 289.122 242.245 L 289.122 246.618 288.286 246.516 L 287.451 246.414 287.400 242.224 L 287.349 238.034 286.463 237.932 C 285.101 237.775,285.174 236.261,286.543 236.261 C 287.407 236.261,287.510 236.156,287.510 235.273 C 287.510 232.843,290.826 231.068,292.408 232.650 M325.587 239.484 L 325.562 246.414 324.747 246.516 L 323.932 246.618 323.932 239.484 L 323.932 232.350 324.772 232.452 L 325.612 232.554 325.587 239.484 M248.330 233.763 C 249.839 235.091,249.777 236.368,248.122 238.022 L 246.687 239.457 248.173 240.921 C 249.946 242.667,250.024 242.682,250.381 241.338 C 250.590 240.549,250.811 240.318,251.276 240.401 C 252.209 240.569,252.229 240.678,251.631 242.293 L 251.076 243.788 251.953 244.703 C 253.258 246.066,252.238 247.227,250.905 245.894 L 250.082 245.071 248.596 245.823 C 243.342 248.483,238.380 244.251,242.311 240.463 L 243.848 238.981 243.117 237.896 C 240.944 234.671,245.373 231.161,248.330 233.763 M268.987 233.505 C 270.118 233.978,270.254 234.207,269.919 235.080 C 269.757 235.503,269.598 235.507,268.640 235.106 C 265.715 233.884,262.163 235.111,262.863 237.102 C 263.199 238.058,263.789 238.353,267.318 239.324 C 272.862 240.851,271.697 246.575,265.843 246.575 C 262.683 246.575,260.089 245.346,260.903 244.234 C 261.296 243.696,261.388 243.700,262.729 244.309 C 265.331 245.489,268.473 245.018,268.901 243.383 C 269.177 242.328,268.261 241.461,266.302 240.921 C 262.135 239.773,260.933 238.881,260.933 236.935 C 260.933 233.760,265.223 231.932,268.987 233.505 M318.131 233.855 C 322.950 236.655,320.190 242.384,314.021 242.385 L 311.362 242.385 311.362 244.480 L 311.362 246.575 310.395 246.575 L 309.428 246.575 309.428 239.773 L 309.428 232.970 313.215 233.085 C 316.299 233.178,317.212 233.321,318.131 233.855 M296.796 235.196 C 296.889 236.156,296.987 236.233,298.246 236.324 C 300.379 236.479,300.455 237.873,298.330 237.873 L 296.857 237.873 296.857 241.251 C 296.857 244.907,297.155 245.382,299.123 244.868 C 300.074 244.619,300.635 245.784,299.784 246.239 C 298.647 246.848,296.974 246.632,295.915 245.741 L 294.923 244.906 294.923 241.390 C 294.923 237.899,294.918 237.873,294.155 237.873 C 293.666 237.873,293.328 237.646,293.223 237.247 C 293.019 236.466,293.216 236.261,294.171 236.261 C 294.819 236.261,294.923 236.101,294.923 235.112 C 294.923 233.466,296.636 233.543,296.796 235.196 M244.455 235.127 C 243.906 235.965,244.539 237.785,245.490 238.102 C 246.033 238.283,247.865 236.610,247.865 235.933 C 247.865 234.312,245.374 233.723,244.455 235.127 M311.362 237.745 L 311.362 240.840 314.129 240.726 C 320.724 240.455,320.012 234.728,313.376 234.668 L 311.362 234.649 311.362 237.745 M281.069 236.858 C 285.749 239.345,283.867 246.575,278.539 246.575 C 274.024 246.575,271.642 241.598,274.521 238.177 C 276.125 236.271,278.909 235.710,281.069 236.858 M335.974 236.744 C 337.667 237.548,337.923 238.272,338.058 242.627 L 338.181 246.575 337.181 246.575 C 336.499 246.575,336.180 246.419,336.180 246.084 C 336.180 245.643,336.082 245.643,335.230 246.084 C 332.119 247.692,328.275 245.451,329.417 242.695 C 330.062 241.137,330.867 240.774,333.674 240.774 C 336.113 240.774,336.180 240.752,336.180 239.991 C 336.180 238.260,333.249 237.268,331.346 238.356 C 330.277 238.967,330.140 238.953,329.729 238.186 C 328.972 236.771,333.720 235.675,335.974 236.744 M343.298 239.081 C 343.998 240.633,344.831 242.466,345.149 243.156 L 345.727 244.410 347.481 240.340 C 349.134 236.502,349.287 236.269,350.148 236.265 C 350.650 236.263,351.013 236.381,350.954 236.528 C 349.273 240.696,345.540 248.575,344.933 249.234 C 343.841 250.422,340.038 250.521,340.053 249.361 C 340.066 248.433,340.557 248.173,341.606 248.539 C 342.447 248.832,342.785 248.802,343.433 248.377 C 344.872 247.435,344.769 246.679,342.492 241.501 C 340.047 235.941,340.126 236.261,341.197 236.261 C 341.925 236.261,342.177 236.600,343.298 239.081 M276.652 238.502 C 273.813 240.233,275.169 244.964,278.504 244.964 C 280.914 244.964,282.493 242.666,281.710 240.296 C 280.966 238.040,278.717 237.242,276.652 238.502 M243.755 240.962 C 240.798 243.292,245.015 246.633,248.146 244.440 L 248.893 243.917 247.019 242.023 C 244.845 239.826,245.094 239.907,243.755 240.962 M331.513 242.587 C 330.121 243.978,332.058 245.658,334.284 244.991 C 335.569 244.605,336.180 243.877,336.180 242.729 C 336.180 241.842,332.374 241.726,331.513 242.587 " stroke="none" fill="#043b3c" fill-rule="evenodd"></path><path id="path1" d="M113.054 177.840 C 108.795 177.944,107.833 178.327,109.886 179.102 C 111.429 179.684,111.519 180.612,111.521 195.869 C 111.523 210.793,111.475 211.273,109.908 211.865 C 107.634 212.723,108.866 212.955,115.552 212.930 C 122.321 212.903,123.167 212.726,121.112 211.765 C 119.783 211.143,119.652 210.589,119.613 205.399 C 119.567 199.226,119.903 199.336,123.280 206.594 L 125.448 211.255 124.771 211.803 C 123.504 212.829,124.036 212.942,130.056 212.933 C 136.221 212.924,136.531 212.848,135.409 211.624 C 135.073 211.258,133.389 208.276,131.668 204.996 C 129.947 201.716,128.156 198.323,127.690 197.455 L 126.841 195.877 129.055 193.850 C 130.275 192.733,132.045 191.488,132.995 191.077 C 136.221 189.680,135.469 189.363,128.929 189.363 C 123.618 189.363,123.127 189.411,123.127 189.927 C 123.127 190.310,123.378 190.492,123.908 190.492 C 125.226 190.492,126.672 191.971,126.672 193.321 C 126.672 194.718,121.590 200.161,120.287 200.161 L 119.581 200.161 119.581 188.880 L 119.581 177.599 118.372 177.669 C 117.707 177.707,115.314 177.784,113.054 177.840 M199.361 177.840 C 195.284 177.948,194.153 178.303,195.918 178.918 C 197.574 179.495,197.571 179.464,197.589 195.456 C 197.607 211.279,197.579 211.592,196.123 211.957 C 193.565 212.599,195.555 212.937,201.934 212.944 C 207.249 212.950,208.541 212.867,208.541 212.519 C 208.541 212.282,208.262 212.087,207.920 212.087 C 205.979 212.087,205.963 211.943,205.963 193.994 L 205.963 177.599 204.593 177.668 C 203.840 177.706,201.485 177.784,199.361 177.840 M214.585 177.840 C 210.467 177.941,209.514 178.264,211.398 178.921 C 213.030 179.490,213.054 179.735,213.054 195.825 C 213.054 212.234,213.071 212.087,211.120 212.087 C 210.766 212.087,210.475 212.280,210.475 212.517 C 210.475 212.861,211.818 212.947,217.244 212.947 C 222.320 212.947,224.013 212.849,224.013 212.557 C 224.013 212.343,223.575 212.080,223.041 211.973 C 221.465 211.658,221.434 211.309,221.434 193.855 L 221.434 177.599 220.064 177.669 C 219.311 177.707,216.845 177.784,214.585 177.840 M322.792 178.112 C 319.419 179.309,317.600 181.966,317.064 186.476 L 316.697 189.562 315.560 189.464 C 314.723 189.391,314.424 189.492,314.424 189.848 C 314.424 190.195,314.762 190.323,315.633 190.303 L 316.841 190.275 316.841 200.536 C 316.841 211.715,316.779 212.087,314.907 212.087 C 314.553 212.087,314.263 212.270,314.263 212.493 C 314.263 212.807,315.948 212.908,321.676 212.936 C 327.764 212.966,329.089 212.893,329.089 212.530 C 329.089 212.286,328.792 212.087,328.429 212.087 C 327.497 212.087,325.947 211.228,325.553 210.493 C 325.037 209.528,325.105 190.502,325.624 190.455 C 325.846 190.434,326.753 190.384,327.639 190.342 C 329.922 190.235,330.056 190.207,330.056 189.847 C 330.056 189.661,329.036 189.525,327.639 189.525 L 325.222 189.525 325.222 184.826 L 325.222 180.128 326.164 179.186 C 326.797 178.552,327.431 178.243,328.098 178.243 C 329.355 178.243,329.336 178.556,328.029 179.377 C 325.906 180.710,325.675 184.501,327.639 185.788 C 331.619 188.396,335.729 184.257,333.323 180.065 C 332.049 177.847,326.459 176.810,322.792 178.112 M61.904 180.508 C 45.395 183.981,44.525 209.254,60.784 213.034 C 74.475 216.217,85.253 206.768,83.186 193.392 C 81.739 184.022,72.316 178.318,61.904 180.508 M269.746 180.938 C 254.208 185.538,254.249 209.186,269.802 212.995 C 274.401 214.121,279.776 213.423,282.912 211.292 C 283.573 210.843,284.375 210.475,284.694 210.475 C 285.287 210.475,285.379 210.627,285.717 212.168 C 286.111 213.968,286.865 213.208,286.865 211.010 C 286.865 202.438,286.038 198.571,285.309 203.731 C 283.848 214.055,273.150 215.869,269.996 206.327 C 267.124 197.636,268.923 185.254,273.443 182.605 C 278.794 179.469,284.481 183.222,285.450 190.530 C 286.010 194.748,286.865 190.198,286.865 183.004 C 286.865 180.600,285.948 179.826,285.579 181.920 C 285.298 183.511,284.640 183.596,282.670 182.295 C 279.223 180.017,274.524 179.524,269.746 180.938 M67.376 181.142 C 75.771 183.474,75.971 211.008,67.604 212.577 C 63.908 213.271,61.157 210.609,59.437 204.674 C 58.478 201.365,58.555 191.921,59.570 188.396 C 61.192 182.760,63.956 180.192,67.376 181.142 M96.374 188.886 C 87.990 189.699,83.711 199.678,87.996 208.424 C 90.900 214.352,100.607 215.415,104.671 210.250 C 107.145 207.107,107.619 204.366,105.286 206.699 C 103.024 208.961,99.200 209.210,97.156 207.230 C 92.871 203.076,95.181 190.169,100.210 190.169 C 102.142 190.169,102.290 190.486,100.708 191.241 C 97.854 192.602,97.653 197.384,100.396 198.686 C 104.518 200.642,108.449 196.683,106.488 192.551 C 105.176 189.784,101.363 188.403,96.374 188.886 M182.281 188.951 C 174.501 189.945,170.293 199.634,174.002 208.018 C 176.662 214.030,185.639 215.538,190.066 210.717 C 192.751 207.793,193.943 203.846,191.312 206.593 C 187.087 211.002,181.870 208.388,181.531 201.692 L 181.388 198.872 187.276 198.872 L 193.163 198.872 192.962 196.696 C 192.424 190.867,188.659 188.137,182.281 188.951 M242.844 189.356 C 242.226 190.299,242.008 190.300,239.484 189.359 C 235.959 188.046,230.604 189.078,228.322 191.511 C 225.287 194.745,226.221 198.016,231.667 203.223 C 237.177 208.493,238.003 212.412,233.602 212.408 C 230.708 212.406,228.817 210.092,227.742 205.238 C 227.634 204.750,227.331 204.351,227.069 204.351 C 226.670 204.351,226.591 205.093,226.591 208.864 C 226.591 213.427,226.912 214.501,227.724 212.651 C 228.178 211.617,229.187 211.599,231.144 212.591 C 234.769 214.428,240.677 213.538,243.169 210.779 C 246.497 207.096,245.357 203.419,239.338 198.423 C 234.578 194.473,233.449 192.382,235.155 190.676 C 237.691 188.140,242.707 191.880,242.707 196.305 C 242.707 196.653,242.913 196.938,243.164 196.938 C 243.527 196.938,243.645 196.125,243.738 192.990 C 243.866 188.683,243.707 188.038,242.844 189.356 M297.969 189.045 C 292.108 190.067,289.316 194.762,292.895 197.578 C 297.028 200.828,302.002 194.531,297.943 191.186 L 296.796 190.240 297.955 189.857 C 300.971 188.862,302.337 190.568,302.337 195.331 C 302.337 198.961,302.113 199.221,297.634 200.812 C 292.054 202.795,290.304 204.493,290.304 207.923 C 290.304 213.412,298.081 215.476,301.653 210.936 C 302.387 210.002,302.659 209.949,302.659 210.737 C 302.659 213.016,308.315 214.188,311.505 212.571 C 313.206 211.708,313.437 211.004,311.926 211.287 C 310.454 211.564,310.405 211.245,310.391 201.289 C 310.379 192.565,310.146 191.443,308.077 190.172 C 305.908 188.839,301.785 188.379,297.969 189.045 M340.210 188.881 C 333.883 189.794,330.862 193.856,330.862 201.450 C 330.862 209.681,333.993 213.366,340.994 213.373 C 345.526 213.378,347.814 211.972,349.868 207.919 C 351.057 205.572,350.729 204.678,349.331 206.455 C 345.543 211.271,339.505 208.256,339.311 201.450 L 339.243 199.033 345.166 198.945 L 351.089 198.857 350.862 196.852 C 350.189 190.901,346.312 188.000,340.210 188.881 M135.375 189.927 C 135.375 190.278,135.621 190.492,136.024 190.492 C 137.028 190.492,137.673 191.866,140.541 200.115 C 141.997 204.307,143.620 208.932,144.147 210.395 L 145.105 213.054 147.279 213.054 L 149.453 213.054 151.507 205.281 L 153.561 197.509 154.080 198.754 C 154.365 199.440,155.602 202.943,156.827 206.540 L 159.056 213.079 161.295 212.986 L 163.533 212.893 166.540 203.262 C 169.665 193.250,170.395 191.478,171.677 190.792 C 173.409 189.865,172.596 189.563,168.090 189.461 C 164.268 189.375,163.738 189.427,163.738 189.881 C 163.739 190.184,164.158 190.519,164.754 190.689 C 167.316 191.424,167.957 194.858,166.474 199.899 C 165.988 201.550,165.439 203.517,165.255 204.271 C 164.766 206.269,164.635 206.081,163.127 201.209 C 162.373 198.771,161.251 195.145,160.634 193.151 L 159.513 189.525 157.030 189.525 L 154.547 189.525 153.863 192.184 C 153.486 193.646,152.632 196.984,151.963 199.602 C 151.295 202.219,150.684 204.297,150.606 204.219 C 150.528 204.141,149.612 201.211,148.571 197.707 C 146.533 190.851,146.526 190.608,148.372 190.430 C 148.942 190.374,149.396 190.146,149.396 189.915 C 149.396 189.590,147.860 189.484,142.385 189.431 C 135.898 189.368,135.375 189.405,135.375 189.927 M185.504 190.829 C 186.022 191.831,186.768 197.065,186.494 197.778 C 186.391 198.048,185.550 198.155,183.824 198.119 L 181.305 198.066 181.405 196.454 C 181.737 191.103,184.023 187.966,185.504 190.829 M343.382 191.084 C 343.835 191.862,344.052 192.990,344.165 195.148 L 344.322 198.135 341.782 198.101 L 339.243 198.066 339.285 196.399 C 339.419 191.161,341.702 188.199,343.382 191.084 M302.337 204.312 L 302.337 209.108 301.399 209.496 C 299.100 210.449,297.321 206.218,298.883 203.512 C 299.237 202.900,302.062 199.566,302.256 199.531 C 302.301 199.523,302.337 201.675,302.337 204.312 M289.049 232.557 C 287.972 233.162,287.510 233.976,287.510 235.273 C 287.510 236.156,287.407 236.261,286.543 236.261 C 285.174 236.261,285.101 237.775,286.463 237.932 L 287.349 238.034 287.400 242.224 L 287.451 246.414 288.286 246.516 L 289.122 246.618 289.122 242.245 L 289.122 237.873 290.572 237.873 C 291.904 237.873,292.023 237.807,292.023 237.067 C 292.023 236.327,291.904 236.261,290.572 236.261 C 289.251 236.261,289.122 236.191,289.122 235.478 C 289.122 234.290,290.007 233.585,291.248 233.786 C 292.321 233.960,293.027 233.269,292.408 232.650 C 291.869 232.111,289.940 232.058,289.049 232.557 M323.932 239.484 L 323.932 246.618 324.747 246.516 L 325.562 246.414 325.587 239.484 L 325.612 232.554 324.772 232.452 L 323.932 232.350 323.932 239.484 M243.924 233.540 C 242.238 234.456,241.927 236.130,243.117 237.896 L 243.848 238.981 242.311 240.463 C 238.380 244.251,243.342 248.483,248.596 245.823 L 250.082 245.071 250.905 245.894 C 252.238 247.227,253.258 246.066,251.953 244.703 L 251.076 243.788 251.631 242.293 C 252.229 240.678,252.209 240.569,251.276 240.401 C 250.811 240.318,250.590 240.549,250.381 241.338 C 250.024 242.682,249.946 242.667,248.173 240.921 L 246.687 239.457 248.122 238.022 C 251.068 235.076,247.707 231.488,243.924 233.540 M263.119 233.508 C 258.759 235.404,260.434 239.304,266.302 240.921 C 268.261 241.461,269.177 242.328,268.901 243.383 C 268.473 245.018,265.331 245.489,262.729 244.309 C 261.388 243.700,261.296 243.696,260.903 244.234 C 260.089 245.346,262.683 246.575,265.843 246.575 C 271.697 246.575,272.862 240.851,267.318 239.324 C 263.789 238.353,263.199 238.058,262.863 237.102 C 262.163 235.111,265.715 233.884,268.640 235.106 C 269.751 235.571,270.105 235.372,270.105 234.284 C 270.105 233.203,265.098 232.647,263.119 233.508 M309.428 239.773 L 309.428 246.575 310.395 246.575 L 311.362 246.575 311.362 244.480 L 311.362 242.385 314.021 242.385 C 319.140 242.384,321.716 239.382,319.822 235.627 C 318.859 233.719,317.553 233.216,313.215 233.085 L 309.428 232.970 309.428 239.773 M294.923 235.112 C 294.923 236.101,294.819 236.261,294.171 236.261 C 293.216 236.261,293.019 236.466,293.223 237.247 C 293.328 237.646,293.666 237.873,294.155 237.873 C 294.918 237.873,294.923 237.899,294.923 241.390 L 294.923 244.906 295.915 245.741 C 296.974 246.632,298.647 246.848,299.784 246.239 C 300.635 245.784,300.074 244.619,299.123 244.868 C 297.155 245.382,296.857 244.907,296.857 241.251 L 296.857 237.873 298.330 237.873 C 300.455 237.873,300.379 236.479,298.246 236.324 C 296.987 236.233,296.889 236.156,296.796 235.196 C 296.636 233.543,294.923 233.466,294.923 235.112 M247.358 234.834 C 248.132 235.607,247.968 236.440,246.857 237.374 C 245.662 238.379,245.327 238.319,244.531 236.954 C 243.424 235.060,245.801 233.277,247.358 234.834 M316.511 235.071 C 320.435 236.419,318.701 240.538,314.129 240.726 L 311.362 240.840 311.362 237.745 L 311.362 234.649 313.376 234.668 C 314.484 234.678,315.895 234.859,316.511 235.071 M276.374 236.714 C 272.512 238.397,272.294 244.280,276.029 246.052 C 279.717 247.802,283.642 245.413,283.642 241.418 C 283.642 237.525,279.970 235.148,276.374 236.714 M330.766 236.904 C 329.531 237.464,329.418 237.605,329.729 238.186 C 330.140 238.953,330.277 238.967,331.346 238.356 C 333.249 237.268,336.180 238.260,336.180 239.991 C 336.180 240.752,336.113 240.774,333.674 240.774 C 330.867 240.774,330.062 241.137,329.417 242.695 C 328.275 245.451,332.119 247.692,335.230 246.084 C 336.082 245.643,336.180 245.643,336.180 246.084 C 336.180 246.419,336.499 246.575,337.181 246.575 L 338.181 246.575 338.058 242.627 C 337.873 236.648,335.476 234.767,330.766 236.904 M340.371 236.470 C 340.371 236.584,341.325 238.848,342.492 241.501 C 344.769 246.679,344.872 247.435,343.433 248.377 C 342.785 248.802,342.447 248.832,341.606 248.539 C 340.557 248.173,340.066 248.433,340.053 249.361 C 340.038 250.521,343.841 250.422,344.933 249.234 C 345.540 248.575,349.273 240.696,350.954 236.528 C 351.013 236.381,350.650 236.263,350.148 236.265 C 349.287 236.269,349.134 236.502,347.481 240.340 L 345.727 244.410 345.149 243.156 C 344.831 242.466,343.998 240.633,343.298 239.081 C 342.177 236.600,341.925 236.261,341.197 236.261 C 340.743 236.261,340.371 236.355,340.371 236.470 M280.513 238.522 C 282.306 239.933,282.395 242.717,280.693 244.149 C 277.991 246.423,274.336 243.792,275.308 240.273 C 275.894 238.150,278.798 237.173,280.513 238.522 M247.019 242.023 L 248.893 243.917 248.146 244.440 C 245.015 246.633,240.798 243.292,243.755 240.962 C 245.094 239.907,244.845 239.826,247.019 242.023 M336.180 242.729 C 336.180 243.877,335.569 244.605,334.284 244.991 C 332.058 245.658,330.121 243.978,331.513 242.587 C 332.374 241.726,336.180 241.842,336.180 242.729 " stroke="none" fill="#f1c7c6" fill-rule="evenodd"></path></g></svg>